<?xml version="1.0" encoding="UTF-8" standalone="no"?>
<!-- Created with Inkscape (http://www.inkscape.org/) -->

<svg
   xmlns:dc="http://purl.org/dc/elements/1.1/"
   xmlns:cc="http://creativecommons.org/ns#"
   xmlns:rdf="http://www.w3.org/1999/02/22-rdf-syntax-ns#"
   xmlns:svg="http://www.w3.org/2000/svg"
   xmlns="http://www.w3.org/2000/svg"
   xmlns:sodipodi="http://sodipodi.sourceforge.net/DTD/sodipodi-0.dtd"
   xmlns:inkscape="http://www.inkscape.org/namespaces/inkscape"
   width="108.28564mm"
   height="64.32mm"
   viewBox="0 0 383.68927 227.90553"
   id="svg10806"
   version="1.1"
   inkscape:version="0.91 r13725"
   sodipodi:docname="avg_lmbd2.svg">
  <defs
     id="defs10808">
    <marker
       inkscape:isstock="true"
       style="overflow:visible"
       id="marker15038"
       refX="0"
       refY="0"
       orient="auto"
       inkscape:stockid="Arrow1Lend">
      <path
         inkscape:connector-curvature="0"
         transform="matrix(-0.8,0,0,-0.8,-10,0)"
         style="fill:#666666;fill-opacity:1;fill-rule:evenodd;stroke:#666666;stroke-width:1pt;stroke-opacity:1"
         d="M 0,0 5,-5 -12.5,0 5,5 0,0 Z"
         id="path15040" />
    </marker>
    <marker
       inkscape:isstock="true"
       style="overflow:visible"
       id="marker14980"
       refX="0"
       refY="0"
       orient="auto"
       inkscape:stockid="Arrow1Lend">
      <path
         inkscape:connector-curvature="0"
         transform="matrix(-0.8,0,0,-0.8,-10,0)"
         style="fill:#666666;fill-opacity:1;fill-rule:evenodd;stroke:#666666;stroke-width:1pt;stroke-opacity:1"
         d="M 0,0 5,-5 -12.5,0 5,5 0,0 Z"
         id="path14982" />
    </marker>
    <marker
       inkscape:stockid="Arrow1Lend"
       orient="auto"
       refY="0"
       refX="0"
       id="marker12550"
       style="overflow:visible"
       inkscape:isstock="true"
       inkscape:collect="always">
      <path
         id="path12552"
         d="M 0,0 5,-5 -12.5,0 5,5 0,0 Z"
         style="fill:#666666;fill-opacity:1;fill-rule:evenodd;stroke:#666666;stroke-width:1pt;stroke-opacity:1"
         transform="matrix(-0.8,0,0,-0.8,-10,0)"
         inkscape:connector-curvature="0" />
    </marker>
    <inkscape:path-effect
       effect="skeletal"
       id="path-effect11859"
       is_visible="true"
       pattern="M 0,5 C 0,2.24 2.24,0 5,0 7.76,0 10,2.24 10,5 10,7.76 7.76,10 5,10 2.24,10 0,7.76 0,5 Z"
       copytype="single_stretched"
       prop_scale="1"
       scale_y_rel="false"
       spacing="0"
       normal_offset="0"
       tang_offset="0"
       prop_units="false"
       vertical_pattern="false"
       fuse_tolerance="0" />
    <inkscape:path-effect
       effect="skeletal"
       id="path-effect11855"
       is_visible="true"
       pattern="M 0,5 C 0,2.24 2.24,0 5,0 7.76,0 10,2.24 10,5 10,7.76 7.76,10 5,10 2.24,10 0,7.76 0,5 Z"
       copytype="single_stretched"
       prop_scale="1"
       scale_y_rel="false"
       spacing="0"
       normal_offset="0"
       tang_offset="0"
       prop_units="false"
       vertical_pattern="false"
       fuse_tolerance="0" />
    <inkscape:path-effect
       effect="spiro"
       id="path-effect11833"
       is_visible="true" />
    <inkscape:path-effect
       effect="spiro"
       id="path-effect11829"
       is_visible="true" />
    <inkscape:path-effect
       effect="spiro"
       id="path-effect11825"
       is_visible="true" />
    <inkscape:path-effect
       effect="spiro"
       id="path-effect11821"
       is_visible="true" />
    <inkscape:path-effect
       effect="spiro"
       id="path-effect11817"
       is_visible="true" />
    <inkscape:path-effect
       effect="spiro"
       id="path-effect11813"
       is_visible="true" />
    <inkscape:path-effect
       effect="spiro"
       id="path-effect11809"
       is_visible="true" />
    <inkscape:path-effect
       effect="spiro"
       id="path-effect11805"
       is_visible="true" />
    <inkscape:path-effect
       effect="spiro"
       id="path-effect11801"
       is_visible="true" />
    <inkscape:path-effect
       effect="spiro"
       id="path-effect11797"
       is_visible="true" />
    <inkscape:path-effect
       effect="spiro"
       id="path-effect11793"
       is_visible="true" />
    <inkscape:path-effect
       effect="spiro"
       id="path-effect11789"
       is_visible="true" />
    <inkscape:path-effect
       effect="spiro"
       id="path-effect11785"
       is_visible="true" />
    <inkscape:path-effect
       effect="spiro"
       id="path-effect11781"
       is_visible="true" />
    <inkscape:path-effect
       effect="spiro"
       id="path-effect11777"
       is_visible="true" />
    <inkscape:path-effect
       effect="spiro"
       id="path-effect11773"
       is_visible="true" />
    <inkscape:path-effect
       effect="spiro"
       id="path-effect11769"
       is_visible="true" />
    <inkscape:path-effect
       effect="spiro"
       id="path-effect11765"
       is_visible="true" />
    <inkscape:path-effect
       effect="spiro"
       id="path-effect11761"
       is_visible="true" />
    <inkscape:path-effect
       effect="spiro"
       id="path-effect11757"
       is_visible="true" />
    <inkscape:path-effect
       effect="spiro"
       id="path-effect11753"
       is_visible="true" />
    <inkscape:path-effect
       effect="spiro"
       id="path-effect11749"
       is_visible="true" />
    <inkscape:path-effect
       effect="spiro"
       id="path-effect11745"
       is_visible="true" />
    <inkscape:path-effect
       effect="spiro"
       id="path-effect11741"
       is_visible="true" />
    <inkscape:path-effect
       effect="spiro"
       id="path-effect11737"
       is_visible="true" />
    <marker
       inkscape:stockid="Arrow1Lend"
       orient="auto"
       refY="0"
       refX="0"
       id="marker11665"
       style="overflow:visible"
       inkscape:isstock="true"
       inkscape:collect="always">
      <path
         id="path11667"
         d="M 0,0 5,-5 -12.5,0 5,5 0,0 Z"
         style="fill:#666666;fill-opacity:1;fill-rule:evenodd;stroke:#666666;stroke-width:1pt;stroke-opacity:1"
         transform="matrix(-0.8,0,0,-0.8,-10,0)"
         inkscape:connector-curvature="0" />
    </marker>
    <inkscape:path-effect
       is_visible="true"
       id="path-effect11663"
       effect="spiro" />
    <inkscape:path-effect
       effect="spiro"
       id="path-effect11617"
       is_visible="true" />
    <inkscape:path-effect
       effect="spiro"
       id="path-effect11613"
       is_visible="true" />
    <inkscape:path-effect
       effect="spiro"
       id="path-effect11609"
       is_visible="true" />
    <inkscape:path-effect
       effect="spiro"
       id="path-effect11605"
       is_visible="true" />
    <inkscape:path-effect
       effect="spiro"
       id="path-effect11601"
       is_visible="true" />
    <inkscape:path-effect
       effect="spiro"
       id="path-effect11597"
       is_visible="true" />
    <inkscape:path-effect
       effect="spiro"
       id="path-effect11593"
       is_visible="true" />
    <marker
       inkscape:isstock="true"
       style="overflow:visible"
       id="marker11466"
       refX="0"
       refY="0"
       orient="auto"
       inkscape:stockid="Arrow1Lend"
       inkscape:collect="always">
      <path
         transform="matrix(-0.8,0,0,-0.8,-10,0)"
         style="fill:#ff6347;fill-opacity:1;fill-rule:evenodd;stroke:#ff6347;stroke-width:1pt;stroke-opacity:1"
         d="M 0,0 5,-5 -12.5,0 5,5 0,0 Z"
         id="path11468"
         inkscape:connector-curvature="0" />
    </marker>
    <inkscape:path-effect
       is_visible="true"
       id="path-effect11464"
       effect="spiro" />
    <inkscape:path-effect
       is_visible="true"
       id="path-effect11414"
       effect="spiro" />
    <inkscape:path-effect
       effect="spiro"
       id="path-effect10844"
       is_visible="true" />
    <inkscape:path-effect
       effect="spiro"
       id="path-effect10840"
       is_visible="true" />
  </defs>
  <sodipodi:namedview
     id="base"
     pagecolor="#ffffff"
     bordercolor="#666666"
     borderopacity="1.0"
     inkscape:pageopacity="0.0"
     inkscape:pageshadow="2"
     inkscape:zoom="2"
     inkscape:cx="178.40705"
     inkscape:cy="12.51808"
     inkscape:document-units="px"
     inkscape:current-layer="layer1"
     showgrid="false"
     fit-margin-right="-120"
     fit-margin-top="0"
     fit-margin-left="0"
     fit-margin-bottom="0"
     inkscape:window-width="1375"
     inkscape:window-height="876"
     inkscape:window-x="65"
     inkscape:window-y="24"
     inkscape:window-maximized="1" />
  <metadata
     id="metadata10811">
    <rdf:RDF>
      <cc:Work
         rdf:about="">
        <dc:format>image/svg+xml</dc:format>
        <dc:type
           rdf:resource="http://purl.org/dc/dcmitype/StillImage" />
        <dc:title></dc:title>
      </cc:Work>
    </rdf:RDF>
  </metadata>
  <g
     inkscape:groupmode="layer"
     id="layer3"
     inkscape:label="Btm"
     transform="translate(-127.9248,-428.06066)">
    <g
       style="fill:#4682b4;stroke:#4682b4;fill-opacity:1;stroke-opacity:1"
       id="g13675">
      <path
         inkscape:connector-curvature="0"
         id="path12504"
         d="m 150,451.8622 360,0"
         style="fill:#4682b4;fill-rule:evenodd;stroke:#4682b4;stroke-width:0.91820008px;stroke-linecap:butt;stroke-linejoin:miter;stroke-opacity:1;fill-opacity:1" />
      <path
         style="fill:#4682b4;fill-rule:evenodd;stroke:#4682b4;stroke-width:0.91820002px;stroke-linecap:butt;stroke-linejoin:miter;stroke-opacity:1;fill-opacity:1"
         d="m 150,501.8622 360,0"
         id="path12506"
         inkscape:connector-curvature="0" />
      <path
         inkscape:connector-curvature="0"
         id="path12508"
         d="m 145,551.8622 360,0"
         style="fill:#4682b4;fill-rule:evenodd;stroke:#4682b4;stroke-width:0.91820002px;stroke-linecap:butt;stroke-linejoin:miter;stroke-opacity:1;fill-opacity:1" />
      <path
         style="fill:#4682b4;fill-rule:evenodd;stroke:#4682b4;stroke-width:0.91820008px;stroke-linecap:butt;stroke-linejoin:miter;stroke-opacity:1;fill-opacity:1"
         d="m 150,601.8622 360,0"
         id="path12510"
         inkscape:connector-curvature="0" />
      <path
         inkscape:connector-curvature="0"
         id="path12512"
         d="m 260.39016,432.3622 0,185"
         style="fill:#4682b4;fill-rule:evenodd;stroke:#4682b4;stroke-width:0.6582213px;stroke-linecap:butt;stroke-linejoin:miter;stroke-opacity:1;fill-opacity:1" />
      <path
         style="fill:#4682b4;fill-rule:evenodd;stroke:#4682b4;stroke-width:0.6582213px;stroke-linecap:butt;stroke-linejoin:miter;stroke-opacity:1;fill-opacity:1"
         d="m 390.39016,432.3622 0,185"
         id="path12514"
         inkscape:connector-curvature="0" />
    </g>
  </g>
  <g
     inkscape:groupmode="layer"
     id="layer4"
     inkscape:label="Tp"
     transform="translate(-127.9248,-428.06066)" />
  <g
     inkscape:label="Layer 1"
     inkscape:groupmode="layer"
     id="layer1"
     transform="translate(-127.9248,-428.06066)">
    <path
       style="fill:none;fill-rule:evenodd;stroke:#ff6347;stroke-width:1.00000012;stroke-linecap:butt;stroke-linejoin:miter;stroke-miterlimit:4;stroke-dasharray:none;stroke-opacity:1;marker-end:url(#marker11466)"
       d="m 146.06066,586.40204 c 0,0 43.40415,-45.85008 75.26376,-56.9453 41.56695,-14.47583 88.72752,15.41349 131.87542,6.71752 48.20961,-9.7161 149.73506,-75.95333 149.73506,-75.95333"
       id="path12524"
       inkscape:connector-curvature="0"
       sodipodi:nodetypes="cssc" />
    <circle
       style="opacity:1;fill:none;fill-opacity:1;stroke:#ff6347;stroke-width:1.77018499;stroke-miterlimit:4;stroke-dasharray:none;stroke-dashoffset:0;stroke-opacity:1"
       id="circle13654"
       cx="187.625"
       cy="551.86218"
       r="0.6149075" />
    <text
       sodipodi:linespacing="125%"
       id="text13960"
       y="598.42859"
       x="26.679661"
       style="font-style:normal;font-weight:normal;font-size:40px;line-height:125%;font-family:sans-serif;letter-spacing:0px;word-spacing:0px;fill:#000000;fill-opacity:1;stroke:none;stroke-width:1px;stroke-linecap:butt;stroke-linejoin:miter;stroke-opacity:1"
       xml:space="preserve"><tspan
         y="598.42859"
         x="26.679661"
         id="tspan13962"
         sodipodi:role="line"
         style="font-size:15px;fill:#ff6347;fill-opacity:1">$\gamma_0$</tspan></text>
    <text
       xml:space="preserve"
       style="font-style:normal;font-weight:normal;font-size:40px;line-height:125%;font-family:sans-serif;letter-spacing:0px;word-spacing:0px;fill:#000000;fill-opacity:1;stroke:none;stroke-width:1px;stroke-linecap:butt;stroke-linejoin:miter;stroke-opacity:1"
       x="286.67969"
       y="636.42957"
       id="text13968"
       sodipodi:linespacing="125%"><tspan
         style="font-size:15px;fill:#ff5555"
         sodipodi:role="line"
         id="tspan13970"
         x="286.67969"
         y="636.42957"><tspan
           style="fill:#ff6347;fill-opacity:1"
           id="tspan14096">$\bar{\lambda}(\gamma_0)</tspan><tspan
           style="fill:#000000"
           id="tspan13972">&gt;\bar{\lambda}(\gamma_1),\bar{\lambda}(\gamma_2)</tspan><tspan
           style="fill:#ff6347;fill-opacity:1"
           id="tspan14110">$</tspan></tspan></text>
    <text
       xml:space="preserve"
       style="font-style:normal;font-weight:normal;font-size:40px;line-height:125%;font-family:sans-serif;letter-spacing:0px;word-spacing:0px;fill:#4682b4;fill-opacity:1;stroke:none;stroke-width:1px;stroke-linecap:butt;stroke-linejoin:miter;stroke-opacity:1;"
       x="152.72366"
       y="444.88489"
       id="text13993"
       sodipodi:linespacing="125%"><tspan
         sodipodi:role="line"
         id="tspan13995"
         x="152.72366"
         y="444.88489"
         style="font-size:15.00000095px;fill:#4682b4;fill-opacity:1;">$\mathcal{L}$</tspan></text>
    <path
       style="opacity:1;fill:#4682b4;fill-opacity:1;stroke:#4682b4;stroke-width:1;stroke-miterlimit:4;stroke-dasharray:none;stroke-dashoffset:0;stroke-opacity:1"
       id="path14112"
       d="m 33.036807,622.10528 c -0.176311,1.42887 -1.245877,2.36959 -2.229319,3.30928 -1.386927,1.42237 -2.948558,2.65995 -4.430838,3.97839 -0.96906,0.86195 -1.80107,1.70476 -2.72413,2.61421 -2.74639,2.47508 -5.39141,5.05626 -8.11649,7.55471 -1.34126,1.25261 -2.72985,2.45329 -4.08721,3.68799 -0.35832,0.33307 -0.18941,0.17982 -0.50533,0.46129 0,0 -4.84846,1.95609 -4.84846,1.95609 l 0,0 c 0.35432,-0.27534 0.16612,-0.12518 0.56279,-0.45278 1.38535,-1.31853 2.95007,-2.44885 4.31813,-3.78974 2.77186,-2.48762 5.45208,-5.06589 8.20846,-7.56967 0.27273,-0.2708 2.38828,-2.37778 2.67688,-2.63874 0.42482,-0.38412 0.89561,-0.71503 1.32285,-1.09644 0.38532,-0.34399 0.72941,-0.73224 1.11301,-1.07814 1.9435,-1.75251 0.21766,0.009 1.83532,-1.70588 0.89475,-0.83787 1.885742,-1.61827 2.225919,-2.8468 0,0 4.678418,-2.38377 4.678418,-2.38377 z"
       inkscape:connector-curvature="0" />
    <path
       style="opacity:1;fill:#4682b4;fill-opacity:1;stroke:#4682b4;stroke-width:1;stroke-miterlimit:4;stroke-dasharray:none;stroke-dashoffset:0;stroke-opacity:1"
       id="path14114"
       d="m 13.35458,622.41034 c 2.17711,2.08906 4.62506,3.86236 6.92931,5.80668 2.47175,1.87334 5.01862,3.64645 7.44623,5.5786 4.928359,3.92251 -1.473,-1.02477 3.471363,2.76966 3.037159,2.41555 5.71809,5.21798 8.328537,8.07726 1.67514,1.84687 3.165899,3.87136 4.592704,5.91646 0.688356,0.96184 1.308899,1.96745 1.901594,2.99039 0.04949,0.087 0.09897,0.17396 0.148459,0.26095 0,0 -4.540842,2.59431 -4.540842,2.59431 l 0,0 c -0.04133,-0.0882 -0.08266,-0.17637 -0.123995,-0.26456 -0.522793,-1.04136 -1.134087,-2.03377 -1.768994,-3.00985 -1.34021,-2.06872 -2.741204,-4.1189 -4.386667,-5.9584 -2.536125,-2.87304 -5.178627,-5.6638 -8.171019,-8.0712 -4.28642,-3.31782 0.75342,0.61821 -3.45604,-2.77995 -2.41975,-1.95337 -4.97931,-3.72585 -7.4762,-5.57703 -2.42392,-1.9449 -4.97509,-3.71906 -7.38347,-5.6834 0,0 4.48903,-2.64992 4.48903,-2.64992 z"
       inkscape:connector-curvature="0" />
    <path
       style="opacity:1;fill:#4682b4;fill-opacity:1;stroke:#4682b4;stroke-width:1;stroke-miterlimit:4;stroke-dasharray:none;stroke-dashoffset:0;stroke-opacity:1"
       id="path14116"
       d="m 45.875042,629.33002 c 2.061433,0.0709 4.124317,0.0729 6.186714,0.065 1.948305,-0.0122 3.896662,-0.0161 5.844937,-0.033 0.698384,-0.007 1.39676,-0.0167 2.095044,-0.0304 0,0 -4.21763,3.06429 -4.21763,3.06429 l 0,0 c -0.670418,-0.0138 -1.340942,-0.0238 -2.01147,-0.0304 -1.918022,-0.0171 -3.83613,-0.0207 -5.754183,-0.033 -2.122108,-0.008 -4.244568,-0.003 -6.365799,0.0651 0,0 4.222387,-3.06774 4.222387,-3.06774 z"
       inkscape:connector-curvature="0" />
    <path
       style="opacity:1;fill:#4682b4;fill-opacity:1;stroke:#4682b4;stroke-width:1;stroke-miterlimit:4;stroke-dasharray:none;stroke-dashoffset:0;stroke-opacity:1"
       id="path14118"
       d="m 49.077757,635.98528 c 1.65966,-0.27381 3.328343,-0.49348 4.984222,-0.78893 1.528855,-0.29357 3.079289,-0.43478 4.632469,-0.50874 0.803507,-0.0384 1.607846,-0.0643 2.412315,-0.0663 0.272559,-0.002 0.144059,-8.7e-4 0.385502,-0.004 0,0 -4.259374,3.09046 -4.259374,3.09046 l 0,0 c -0.228017,-0.006 -0.106142,-0.003 -0.365634,-0.007 -0.77107,-0.003 -1.542334,-0.008 -2.312918,0.0272 -1.525834,0.0837 -3.045782,0.23741 -4.548868,0.52137 -1.703235,0.27621 -3.408656,0.53727 -5.106988,0.84351 0,0 4.179274,-3.10766 4.179274,-3.10766 z"
       inkscape:connector-curvature="0" />
    <path
       style="opacity:1;fill:#4682b4;fill-opacity:1;stroke:#4682b4;stroke-width:1;stroke-miterlimit:4;stroke-dasharray:none;stroke-dashoffset:0;stroke-opacity:1"
       id="path14120"
       d="m 88.629633,622.84563 c -3.489153,-0.37826 -6.960766,-0.9017 -10.438162,-1.37525 -2.956571,-0.45922 -5.939734,-0.77075 -8.881715,-1.32074 -0.56042,-0.051 -1.098274,-0.28737 -1.655118,-0.35465 -0.27136,-0.0328 -0.223516,-0.0187 -0.353744,0.15836 1.466062,-0.83996 2.932124,-1.67991 4.398187,-2.51986 -0.02739,0.0178 -0.07367,0.0219 -0.08218,0.0534 -0.0492,0.18235 0.778413,1.57891 0.881415,1.76398 0.66761,1.12901 1.177209,2.34198 1.631942,3.56958 0.414775,1.05942 0.78849,2.13382 1.054564,3.24063 0.140793,0.62957 0.219708,1.26932 0.282486,1.91052 -0.05914,-0.072 0.08255,0.39687 0.09546,0.34274 0.06492,-0.27237 -0.123808,-0.067 0.07436,-0.2366 0.604482,-0.47645 1.419654,-0.6344 2.151883,-0.81954 1.306216,-0.2826 2.646218,-0.3264 3.977263,-0.36284 1.2843,-0.0256 2.568859,-0.0295 3.853364,-0.026 1.203392,0.0277 2.237681,0.57291 3.242882,1.17627 1.055301,0.77928 1.85552,1.87717 2.405487,3.05807 0.510529,1.13852 0.889323,2.33649 1.182132,3.54845 0.149952,0.71754 0.275866,1.44235 0.329795,2.17403 0.02318,0.86407 0.006,1.72115 -0.179979,2.56667 -0.619465,1.85058 -2.001138,2.8924 -3.601228,3.87361 -4.159252,2.51359 -5.917992,3.70516 -10.301044,4.14133 -2.075811,0.1724 -4.160942,0.15761 -6.242223,0.16667 -1.764511,-0.0126 -3.45432,-0.48682 -5.076229,-1.1442 -1.007812,-0.36762 -1.938434,-0.89317 -2.878029,-1.4014 0,0 4.376622,-2.84354 4.376622,-2.84354 l 0,0 c 0.87894,0.5363 1.784315,1.02453 2.744901,1.40173 1.578657,0.62089 3.221726,1.02124 4.929697,1.01036 2.062973,0.006 4.130499,0.007 6.185635,-0.19746 1.029512,-0.13798 2.042005,-0.28782 3.039178,-0.59131 1.678942,-0.51098 5.244543,-2.52115 -1.479189,1.26729 1.516741,-0.85947 2.977359,-1.75667 3.636241,-3.46111 0.27611,-0.81494 0.20846,-1.54166 0.181869,-2.38405 -0.01516,-0.71411 -0.07154,-1.42716 -0.214186,-2.12848 -0.265056,-1.18278 -0.604458,-2.35953 -1.102193,-3.46645 -0.525392,-1.08272 -1.244194,-2.11525 -2.265895,-2.78149 -0.963376,-0.5437 -1.94832,-0.98669 -3.083061,-0.95707 -1.274503,-8e-5 -2.549386,-0.0116 -3.823497,0.0267 -1.320312,0.0537 -2.65198,0.12354 -3.931216,0.48347 -0.477176,0.14893 -0.951538,0.29502 -1.407914,0.50128 -0.139289,0.063 -0.477159,0.24521 -0.633788,0.29121 -0.07664,0.0225 -0.158526,0.0197 -0.237789,0.0296 -0.379041,-0.0803 -0.630638,-0.46376 -0.627309,-0.84785 0.0052,-0.62665 -0.05158,-1.25241 -0.163762,-1.8691 -0.228892,-1.09644 -0.600935,-2.15023 -0.998781,-3.19585 -0.430781,-1.20564 -0.916514,-2.39887 -1.593473,-3.4903 -0.43458,-0.73911 -1.022233,-1.46008 -1.170897,-2.3182 5.24449,-3.16718 3.144504,-3.12119 6.616326,-2.26212 2.845105,0.62364 5.733909,1.0338 8.611492,1.47375 3.559884,0.51357 7.141766,1.04681 10.744793,1.07032 0,0 -4.205368,3.05537 -4.205368,3.05537 z"
       inkscape:connector-curvature="0" />
    <path
       style="opacity:1;fill:#4682b4;fill-opacity:1;stroke:#4682b4;stroke-width:1;stroke-miterlimit:4;stroke-dasharray:none;stroke-dashoffset:0;stroke-opacity:1"
       id="path14122"
       d="m 100.905,638.50277 c -0.0839,2.02181 -0.0974,4.04557 -0.11735,6.06875 -0.0868,3.35182 0.23647,6.69444 0.51414,10.03045 0.32346,3.19456 0.73696,6.38496 1.25054,9.55498 0.26382,1.52905 0.50906,3.06118 0.76715,4.59118 0.42184,1.8532 1.50654,-0.10771 -4.61887,2.52125 -0.107629,0.0462 0.02933,-0.23255 0.03695,-0.34942 0.02764,-0.42388 0.0307,-0.84901 0.04489,-1.27356 0.02931,-2.40114 0.08949,-4.80155 0.0367,-7.20261 -0.157051,-2.99193 -0.475886,-5.97581 -0.90646,-8.94019 -0.314197,-2.66433 -0.785736,-5.30609 -1.204406,-7.955 -0.233295,-1.48888 -0.553595,-2.96382 -0.705773,-4.46431 -0.06846,-0.74348 -0.104622,-1.48914 -0.114944,-2.23555 0.0039,-0.63006 -0.01102,-1.26025 0.04512,-1.88809 0.10397,-0.54117 0.360071,-1.21764 0.863064,-1.52553 4.154439,-2.54297 3.229289,-2.11087 5.345619,-3.05106 0.92506,-0.38181 1.92661,-0.49373 2.91664,-0.55932 1.15915,0.053 1.51526,0.74489 1.92107,1.7139 0.4532,1.06549 0.65236,2.1912 0.86074,3.32077 0.24207,1.37057 0.38177,2.75856 0.562,4.13904 0.13193,1.19825 0.19848,2.4016 0.26116,3.60491 0.0156,0.41773 0.029,0.83566 0.0535,1.253 0.001,0.0154 0.0108,0.0598 0.003,0.0463 -0.14044,-0.25249 -0.11838,-0.29762 0.12751,-0.31432 0.20633,0.0345 0.28625,-0.14687 0.45185,-0.22882 0.0951,-0.047 0.20336,-0.0615 0.30133,-0.10207 0.11397,-0.0472 0.22221,-0.10724 0.33331,-0.16087 -1.38059,0.78632 -2.76118,1.57264 -4.14178,2.35896 0.83487,-0.47134 1.53693,-1.12758 2.25039,-1.75901 0.86213,-0.79805 1.59063,-1.72844 2.25896,-2.69082 0.80096,-1.21244 1.55293,-2.45363 2.33066,-3.68104 0.71367,-1.11487 1.34981,-2.27341 1.97112,-3.44148 0.39021,-0.73271 0.77677,-1.46731 1.16744,-2.1998 0,0 4.76605,-2.1639 4.76605,-2.1639 l 0,0 c -0.34363,0.77967 -0.86665,1.47844 -1.23089,2.24992 -0.62828,1.18562 -1.27715,2.3571 -1.98253,3.4967 -0.4177,0.62414 -0.76274,1.27344 -1.15357,1.91114 -0.36765,0.59988 -0.86991,1.1137 -1.16783,1.75846 -0.58998,1.02573 -1.37201,1.93213 -2.16669,2.80635 -0.70474,0.63911 -1.39297,1.30725 -2.18472,1.83724 -1.59898,0.91837 -3.19075,1.84942 -4.79695,2.7551 -0.24959,0.14074 -0.62355,0.31633 -0.9131,0.35881 -0.11778,0.0173 -0.23897,-0.012 -0.35709,0.006 -0.24226,-0.006 -0.5917,-0.13182 -0.57741,-0.44751 0.0315,-0.42479 0.0332,-0.85133 0.0333,-1.27705 1.4e-4,-1.1988 -0.0451,-2.39895 -0.17802,-3.59095 -0.16257,-1.37034 -0.33017,-2.74195 -0.56317,-4.1018 -0.21106,-1.08892 -0.39667,-2.17853 -0.83445,-3.20742 -0.3661,-0.83767 -0.58655,-1.23517 -1.58394,-1.16149 -0.959052,0.0931 -1.913342,0.25667 -2.783323,0.69485 -1.79245,0.91581 -1.038163,0.5426 3.509613,-2.11436 0.12949,-0.0756 -0.26036,0.15189 -0.37494,0.24865 -0.0711,0.06 -0.45119,0.49034 -0.50886,0.5901 -0.0566,0.0978 -0.0804,0.21125 -0.12052,0.31687 -0.0877,0.6035 -0.0357,1.21349 -0.05,1.82213 -0.007,0.74231 -0.0145,1.48538 0.0341,2.22668 0.11511,1.50989 0.33237,3.00802 0.57436,4.50243 0.34264,2.67065 0.77485,5.3289 1.11831,7.99964 0.42914,2.98374 0.74684,5.9824 0.92983,8.99181 0.0849,2.37596 0.0853,4.75378 0.1349,7.13068 0.0134,0.36862 0.10111,1.56901 0.0745,1.58568 -3.30902,2.07234 -4.615668,4.3408 -4.717005,2.26162 -0.104331,-1.57267 -0.307731,-3.13625 -0.532019,-4.69582 -0.444929,-3.20351 -0.859921,-6.41265 -1.170884,-9.63219 -0.292135,-3.33331 -0.654437,-6.66927 -0.625549,-10.0201 -0.01975,-1.98332 -0.03231,-3.96728 -0.117352,-5.94916 0,0 4.650299,-2.36945 4.650299,-2.36945 z"
       inkscape:connector-curvature="0" />
    <path
       style="opacity:1;fill:#4682b4;fill-opacity:1;stroke:#4682b4;stroke-width:1;stroke-miterlimit:4;stroke-dasharray:none;stroke-dashoffset:0;stroke-opacity:1"
       id="path14124"
       d="m 111.43803,630.12321 c 1.19249,0.95269 2.21406,2.10151 3.34141,3.12796 0.3884,0.35364 0.80269,0.67777 1.20403,1.01665 0.41174,0.38217 0.82349,0.76434 1.23523,1.14651 1.93424,1.75202 3.84661,3.53751 5.89942,5.15152 1.05932,0.75379 2.04643,1.63872 3.18682,2.27185 0.44038,0.2539 0.21994,0.1397 0.65996,0.3452 0,0 -4.35491,2.86259 -4.35491,2.86259 l 0,0 c -0.45186,-0.24514 -0.22748,-0.1163 -0.67286,-0.38697 -1.08755,-0.72501 -2.06026,-1.61323 -3.09349,-2.41102 -2.00334,-1.66706 -3.86918,-3.49074 -5.77994,-5.26145 -4.06893,-3.66658 1.56192,1.36776 -2.50172,-2.13819 -1.14957,-0.9918 -2.19471,-2.13255 -3.48839,-2.94411 0,0 4.36444,-2.78054 4.36444,-2.78054 z"
       inkscape:connector-curvature="0" />
    <path
       style="fill:none;fill-rule:evenodd;stroke:#666666;stroke-width:1.00000006;stroke-linecap:butt;stroke-linejoin:miter;stroke-opacity:1;stroke-miterlimit:4;stroke-dasharray:none;marker-end:url(#marker11665)"
       d="m 146.17359,554.49635 c 0,0 21.03386,-65.13491 49.14392,-76.36753 42.1237,-16.8324 88.41249,23.9587 133.64318,20.5061 28.9798,-2.21212 57.56236,-2.15776 79.19596,-21.56676 10.99146,-9.8612 21.2132,-38.89087 21.2132,-38.89087"
       id="path14780"
       inkscape:connector-curvature="0"
       sodipodi:nodetypes="csssc" />
    <path
       style="fill:none;fill-rule:evenodd;stroke:#666666;stroke-width:1px;stroke-linecap:butt;stroke-linejoin:miter;stroke-opacity:1;marker-end:url(#marker14980)"
       d="m 146.66311,567.22428 c 0,0 41.60336,-33.86263 68.2358,-42.77996 29.47445,-9.86892 54.05706,-2.44652 84.85281,1.76776 13.84597,1.89477 48.15961,8.45751 73.53911,-7.42462 18.95648,-11.86269 48.92759,-15.49516 65.05383,-33.23401 9.50676,-10.45742 14.84924,-41.36575 14.84924,-41.36575"
       id="path14782"
       inkscape:connector-curvature="0"
       sodipodi:nodetypes="cssssc" />
    <path
       style="fill:none;fill-rule:evenodd;stroke:#666666;stroke-width:1px;stroke-linecap:butt;stroke-linejoin:miter;stroke-opacity:1;marker-end:url(#marker12550)"
       d="m 146.03798,593.38723 c 0,0 43.74648,-40.61432 71.06423,-50.55814 16.66446,-6.06596 35.35853,-5.69612 53.03301,-4.24264 27.23352,2.23958 52.22518,19.55141 79.54951,19.79899 26.84336,0.24322 48.47707,-31.98505 74.95332,-36.416 26.39556,-4.41744 72.832,-11.66726 72.832,-11.66726"
       id="path14940"
       inkscape:connector-curvature="0"
       sodipodi:nodetypes="cssssc" />
    <path
       style="fill:none;fill-rule:evenodd;stroke:#666666;stroke-width:1px;stroke-linecap:butt;stroke-linejoin:miter;stroke-opacity:1;marker-end:url(#marker15038)"
       d="m 146.03556,610.71134 c 0,0 66.52572,-60.95409 105.00535,-65.40738 34.5453,-3.99797 53.51858,33.23498 88.0348,37.47667 26.8843,3.3038 53.7456,-6.79253 80.61017,-10.25305 27.11136,-3.49231 81.31728,-10.6066 81.31728,-10.6066"
       id="path14942"
       inkscape:connector-curvature="0"
       sodipodi:nodetypes="csssc" />
  </g>
</svg>
