<?xml version="1.0" encoding="UTF-8" standalone="no"?>
<!-- Created with Inkscape (http://www.inkscape.org/) -->

<svg
   xmlns:dc="http://purl.org/dc/elements/1.1/"
   xmlns:cc="http://creativecommons.org/ns#"
   xmlns:rdf="http://www.w3.org/1999/02/22-rdf-syntax-ns#"
   xmlns:svg="http://www.w3.org/2000/svg"
   xmlns="http://www.w3.org/2000/svg"
   xmlns:sodipodi="http://sodipodi.sourceforge.net/DTD/sodipodi-0.dtd"
   xmlns:inkscape="http://www.inkscape.org/namespaces/inkscape"
   width="81.585091mm"
   height="35.812843mm"
   viewBox="0 0 289.08103 126.8959"
   id="svg2"
   version="1.1"
   inkscape:version="0.91 r13725"
   sodipodi:docname="tailcutting.svg">
  <defs
     id="defs4" />
  <sodipodi:namedview
     id="base"
     pagecolor="#ffffff"
     bordercolor="#666666"
     borderopacity="1.0"
     inkscape:pageopacity="0.0"
     inkscape:pageshadow="2"
     inkscape:zoom="1.979899"
     inkscape:cx="141.13515"
     inkscape:cy="45.281451"
     inkscape:document-units="px"
     inkscape:current-layer="layer1"
     showgrid="false"
     fit-margin-top="0"
     fit-margin-left="0"
     fit-margin-right="-16"
     fit-margin-bottom="0"
     inkscape:window-width="1375"
     inkscape:window-height="876"
     inkscape:window-x="65"
     inkscape:window-y="24"
     inkscape:window-maximized="1" />
  <metadata
     id="metadata7">
    <rdf:RDF>
      <cc:Work
         rdf:about="">
        <dc:format>image/svg+xml</dc:format>
        <dc:type
           rdf:resource="http://purl.org/dc/dcmitype/StillImage" />
        <dc:title></dc:title>
      </cc:Work>
    </rdf:RDF>
  </metadata>
  <g
     inkscape:label="Layer 1"
     inkscape:groupmode="layer"
     id="layer1"
     transform="translate(-158.40819,-238.57031)">
    <ellipse
       style="fill:#b3b3b3;fill-opacity:1;stroke:#666666;stroke-width:0.82499999;stroke-miterlimit:4;stroke-dasharray:none;stroke-opacity:1"
       id="path4136"
       cx="298.57144"
       cy="303.07648"
       rx="115.71429"
       ry="55" />
    <path
       style="fill:none;fill-rule:evenodd;stroke:#000000;stroke-width:1;stroke-linecap:butt;stroke-linejoin:miter;stroke-miterlimit:4;stroke-dasharray:1, 1;stroke-dashoffset:0;stroke-opacity:1"
       d="m 158.92857,344.8622 c 0,0 -0.53927,-18.94526 3.92857,-26.78571 3.18498,-5.5892 9.08646,-9.61042 15,-12.14286 1.38278,-0.59217 4.47539,-0.57923 4.47539,-0.57923"
       id="path4140"
       inkscape:connector-curvature="0"
       sodipodi:nodetypes="cssc" />
    <path
       style="fill:none;fill-rule:evenodd;stroke:#000000;stroke-width:1px;stroke-linecap:butt;stroke-linejoin:miter;stroke-opacity:1"
       d="m 182.42886,305.35504 c 0,0 6.76954,0.47315 10,-0.35714 6.78069,-1.74277 12.98758,-5.48816 18.75,-9.46429 8.49609,-5.86239 16.02064,-13.15894 22.85714,-20.89286 3.33628,-3.77423 6.00037,-8.10063 8.75,-12.32142 3.55501,-5.45708 4.68214,-13.02564 10,-16.78572 7.9303,-5.60726 19.07059,-7.7305 28.57143,-5.71428 5.84828,1.24109 11.07989,5.55632 14.64286,10.35714 4.48714,6.04607 6.06079,13.9775 7.14286,21.42857 1.02711,7.07263 0.67786,14.41865 -0.71429,21.42857 -1.58506,7.98127 -4.39019,15.87643 -8.57143,22.85714 -3.33767,5.57234 -10.36626,8.64398 -12.85714,14.64286 -2.05892,4.95857 -1.75461,10.74604 -1.07143,16.07143 0.71854,5.60102 0.94984,12.54106 5.35714,16.07143 4.57643,3.66584 11.63667,1.8448 17.5,1.78571 5.8766,-0.0592 12.26792,0.53359 17.5,-2.14285 3.89992,-1.99499 6.23866,-6.18544 8.92858,-9.64286 3.22395,-4.14383 6.06258,-8.60225 8.57142,-13.21429 4.17607,-7.67692 5.80752,-16.69681 10.71429,-23.92857 3.35605,-4.94625 8.19651,-8.70884 12.5,-12.85714 3.58041,-3.45129 7.00024,-7.14411 11.07143,-10 5.18829,-3.63952 10.84061,-6.73307 16.78571,-8.92857 5.148,-1.90114 16.07143,-3.57143 16.07143,-3.57143"
       id="path4146"
       inkscape:connector-curvature="0"
       sodipodi:nodetypes="csssssssssssssssssssssc" />
    <path
       style="fill:none;fill-rule:evenodd;stroke:#000000;stroke-width:1;stroke-linecap:butt;stroke-linejoin:miter;stroke-miterlimit:4;stroke-dasharray:1, 1;stroke-dashoffset:0;stroke-opacity:1"
       d="m 404.81863,280.22685 7.82869,-1.26269 6.56599,-1.38896 12.6269,-3.28299 9.59645,-8.83884 4.04061,-7.3236"
       id="path4148"
       inkscape:connector-curvature="0" />
    <ellipse
       style="fill:#000000;fill-opacity:1;stroke:#000000;stroke-width:0.28300527;stroke-miterlimit:4;stroke-dasharray:none;stroke-dashoffset:0;stroke-opacity:1"
       id="path4150"
       cx="301.38394"
       cy="297.32507"
       rx="2.3584971"
       ry="2.3584974" />
    <text
       xml:space="preserve"
       style="font-style:normal;font-weight:normal;font-size:15px;line-height:125%;font-family:sans-serif;letter-spacing:0px;word-spacing:0px;fill:#000000;fill-opacity:1;stroke:none;stroke-width:1px;stroke-linecap:butt;stroke-linejoin:miter;stroke-opacity:1"
       x="171.0712"
       y="321.64792"
       id="text4152"
       sodipodi:linespacing="125%"><tspan
         sodipodi:role="line"
         id="tspan4154"
         x="171.0712"
         y="321.64792">\textbf{(b)}</tspan></text>
    <text
       sodipodi:linespacing="125%"
       id="text4156"
       y="305.5769"
       x="301.78571"
       style="font-style:normal;font-weight:normal;font-size:15px;line-height:125%;font-family:sans-serif;letter-spacing:0px;word-spacing:0px;fill:#000000;fill-opacity:1;stroke:none;stroke-width:1px;stroke-linecap:butt;stroke-linejoin:miter;stroke-opacity:1"
       xml:space="preserve"><tspan
         y="305.5769"
         x="301.78571"
         id="tspan4158"
         sodipodi:role="line">\textbf{(a)}</tspan></text>
    <text
       xml:space="preserve"
       style="font-style:normal;font-weight:normal;font-size:15px;line-height:125%;font-family:sans-serif;letter-spacing:0px;word-spacing:0px;fill:#000000;fill-opacity:1;stroke:none;stroke-width:1px;stroke-linecap:butt;stroke-linejoin:miter;stroke-opacity:1"
       x="412.50018"
       y="286.64792"
       id="text4160"
       sodipodi:linespacing="125%"><tspan
         sodipodi:role="line"
         id="tspan4162"
         x="412.50018"
         y="286.64792">\textbf{(c)}</tspan></text>
  </g>
</svg>
